<?xml version="1.0" encoding="UTF-8"?>
<svg version="1.1" xmlns="http://www.w3.org/2000/svg" width="2048" height="2048">
<path d="M0 0 C1.92378738 0.00222501 3.84757482 0.00440139 5.7713623 0.00653076 C99.28585635 0.14977313 191.76097291 13.12447132 441.125 99.3125 C442.27226563 99.85261719 443.41953125 100.39273438 444.6015625 100.94921875 C459.0665042 107.76100897 473.27015203 114.88777968 487.22314453 122.6953125 C490.36816882 124.4480166 493.52493404 126.1782476 496.68359375 127.90625 C518.41047458 139.82524424 539.45323884 152.65321577 560.125 166.3125 C561.08583496 166.94446289 562.04666992 167.57642578 563.03662109 168.22753906 C576.29520833 176.95292986 589.37396122 185.85919526 602.125 195.3125 C602.82061035 195.82796387 603.5162207 196.34342773 604.23291016 196.87451172 C608.88305411 200.32831717 613.50992994 203.81200824 618.125 207.3125 C618.68493652 207.73595703 619.24487305 208.15941406 619.82177734 208.59570312 C628.47406208 215.14786834 636.90799584 221.94963653 645.3046875 228.82421875 C646.89761865 230.12659379 648.4952952 231.42316032 650.09375 232.71875 C660.39107719 241.07775677 670.4679398 249.69384369 680.234375 258.66796875 C682.03264735 260.37031652 682.03264735 260.37031652 684.125 261.3125 C684.125 261.9725 684.125 262.6325 684.125 263.3125 C684.70822021 263.57426025 685.29144043 263.83602051 685.89233398 264.10571289 C688.25298167 265.38167588 689.90462539 266.77633575 691.84765625 268.62109375 C692.54600586 269.28077148 693.24435547 269.94044922 693.96386719 270.62011719 C694.69766602 271.32297852 695.43146484 272.02583984 696.1875 272.75 C696.94321289 273.46704102 697.69892578 274.18408203 698.47753906 274.92285156 C703.68779078 279.8844675 708.80522588 284.92725392 713.828125 290.078125 C716.12622326 292.39647294 716.12622326 292.39647294 718.921875 294.484375 C720.01242187 295.38929688 720.01242187 295.38929688 721.125 296.3125 C721.125 296.9725 721.125 297.6325 721.125 298.3125 C721.68445312 298.53421875 722.24390625 298.7559375 722.8203125 298.984375 C725.84786618 300.72906695 727.69171823 302.9384958 730 305.5625 C734.30747345 310.39245128 738.76937615 315.01637875 743.375 319.5625 C747.50859803 323.65590721 751.53660297 327.75916715 755.296875 332.203125 C757.28681477 334.49920935 759.34804228 336.71614801 761.42211914 338.93603516 C766.49782338 344.36907274 771.33176001 349.90909595 775.98828125 355.7109375 C778.08382494 358.26236729 780.26463155 360.69576773 782.5 363.125 C786.48008466 367.49758436 790.13847497 372.05419291 793.75952148 376.72241211 C796.76028782 380.58807782 799.81461153 384.40157136 802.91894531 388.18457031 C809.91363673 396.70870108 816.60360082 405.42195803 823.125 414.3125 C823.64562012 415.02132324 824.16624023 415.73014648 824.70263672 416.46044922 C848.26717509 448.62256924 870.21810287 482.08857132 889.74462891 516.85595703 C891.02546394 519.13536313 892.31458375 521.40986995 893.60546875 523.68359375 C900.4935031 535.87960653 906.93607572 548.30757749 913.31494141 560.77587891 C914.49911107 563.08959373 915.68617108 565.4018321 916.87646484 567.71240234 C931.67712337 596.49029954 944.51131807 626.11611428 956.125 656.3125 C956.57262695 657.47507324 957.02025391 658.63764648 957.48144531 659.83544922 C986.56060095 735.94817716 1005.96170027 815.5047403 1016.125 896.3125 C1016.22341187 897.0909729 1016.32182373 897.8694458 1016.42321777 898.67150879 C1017.77262422 909.41405363 1018.91546425 920.16805894 1019.90496826 930.94952393 C1020.12217989 933.28221416 1020.35134492 935.61348081 1020.58251953 937.94482422 C1026.14713731 995.20803854 1026.13975054 1055.51160728 1020.38146973 1112.75769043 C1020.10962182 1115.46568889 1019.84884498 1118.17462666 1019.58886719 1120.88378906 C1014.26332693 1175.73702837 1004.72747364 1229.90969743 991.125 1283.3125 C990.83716644 1284.44510254 990.83716644 1284.44510254 990.54351807 1285.60058594 C973.71086449 1351.55532327 949.3984703 1415.65059585 919.01123047 1476.52539062 C917.45093635 1479.65180498 915.90875812 1482.78670678 914.37324524 1485.925354 C907.31370523 1500.3508765 899.87632549 1514.4821587 891.81982422 1528.37597656 C890.02971121 1531.47760135 888.2652428 1534.59288943 886.50390625 1537.7109375 C878.71672554 1551.44008231 870.4678452 1564.75541771 861.72460938 1577.89453125 C859.60910775 1581.09232247 857.553641 1584.32464266 855.5 1587.5625 C841.14480099 1609.92865276 825.35166187 1631.28051766 809.125 1652.3125 C808.61195312 1652.97765625 808.09890625 1653.6428125 807.5703125 1654.328125 C793.75884749 1672.18383114 779.34200697 1689.64950684 763.98828125 1706.203125 C762.08805296 1708.17225474 762.08805296 1708.17225474 761.125 1710.3125 C760.465 1710.3125 759.805 1710.3125 759.125 1710.3125 C758.84970963 1710.90934097 758.57441925 1711.50618195 758.29078674 1712.12110901 C757.17908104 1714.21084101 756.08354381 1715.65836713 754.47241211 1717.37475586 C753.9235585 1717.96172745 753.3747049 1718.54869904 752.80921936 1719.15345764 C752.20057541 1719.79246506 751.59193146 1720.43147247 750.96484375 1721.08984375 C750.31337875 1721.77884262 749.66191376 1722.46784149 748.9907074 1723.17771912 C740.08168828 1732.5386575 730.92690347 1741.66133847 721.77954102 1750.78833008 C719.18215597 1753.37995801 716.5893725 1755.97613643 713.99783421 1758.57360935 C711.96716356 1760.60791447 709.93409182 1762.63980659 707.90031242 1764.67100334 C706.48554967 1766.08479319 705.07276715 1767.50056376 703.66004944 1768.91639709 C699.16742992 1773.39277519 694.62711011 1777.74483425 689.80718994 1781.86842346 C687.24165883 1784.07080454 684.78660521 1786.38294885 682.3125 1788.6875 C677.61124815 1793.03574662 672.75250666 1797.12521219 667.76171875 1801.140625 C665.20079972 1803.25006349 662.75376545 1805.44137648 660.3125 1807.6875 C655.85570676 1811.74876167 651.19537032 1815.46663522 646.43383789 1819.15795898 C642.6334158 1822.10894135 638.9209942 1825.13763535 635.25 1828.25 C622.44682222 1838.9870565 608.71080031 1848.60119052 595.125 1858.3125 C594.39603516 1858.83376465 593.66707031 1859.3550293 592.91601562 1859.89208984 C583.72163255 1866.45450874 574.4503163 1872.88118197 565.00537109 1879.078125 C563.7593525 1879.89607748 562.51486285 1880.71636417 561.27197266 1881.5390625 C540.44938578 1895.31608747 518.9541524 1908.20029948 497.125 1920.3125 C496.20799316 1920.82248535 495.29098633 1921.3324707 494.34619141 1921.85791016 C449.7553197 1946.53850925 403.78265947 1967.33538582 356.125 1985.3125 C355.13010559 1985.68828186 355.13010559 1985.68828186 354.1151123 1986.07165527 C274.24203554 2016.17200596 190.17952105 2034.77209293 22.2734375 2048.48046875 C20.43673683 2048.48370278 18.60003639 2048.48706821 16.76333618 2048.49055481 C12.93987434 2048.49647936 9.11643485 2048.49840194 5.29296875 2048.49780273 C1.45600622 2048.49772197 -2.38083565 2048.50459693 -6.21777344 2048.51831055 C-30.84498143 2048.60486924 -55.3107663 2048.14072246 -79.875 2046.3125 C-81.36166168 2046.20248154 -81.36166168 2046.20248154 -82.87835693 2046.09024048 C-88.26091159 2045.67877512 -93.63092165 2045.18421057 -99 2044.625 C-99.79531128 2044.54390991 -100.59062256 2044.46281982 -101.41003418 2044.37927246 C-189.85999661 2035.27835305 -276.78994131 2015.62504511 -456.875 1942.3125 C-458.00824707 1941.75949219 -459.14149414 1941.20648437 -460.30908203 1940.63671875 C-476.48545332 1932.72598881 -492.31272922 1924.3735162 -507.875 1915.3125 C-509.04359781 1914.6357486 -510.21238819 1913.95932963 -511.38134766 1913.28320312 C-541.39813472 1895.91256566 -570.8093451 1877.51650762 -598.72265625 1856.89990234 C-600.99646637 1855.2229158 -603.27883235 1853.55806501 -605.5625 1851.89453125 C-632.62846933 1832.13312594 -658.57620779 1810.94570389 -683.44921875 1788.48828125 C-685.51202788 1786.63806437 -687.5921237 1784.81305191 -689.6875 1783 C-698.50426199 1775.29861151 -707.03160357 1767.31708975 -715.2097168 1758.94091797 C-717.97355638 1756.12976008 -720.80621598 1753.47964326 -723.80078125 1750.9140625 C-727.91002655 1747.35963137 -731.58392152 1743.50359046 -735.25 1739.5 C-739.54946544 1734.85401047 -743.86776458 1730.25770925 -748.375 1725.8125 C-751.73518742 1722.49093543 -754.90289272 1719.08591134 -757.97265625 1715.49609375 C-759.88214698 1713.30429638 -761.84565822 1711.16865136 -763.82299805 1709.03808594 C-768.65320791 1703.83187171 -773.23626745 1698.5000162 -777.69140625 1692.96484375 C-779.86897068 1690.31982363 -782.12818763 1687.78037475 -784.4375 1685.25 C-788.81161948 1680.43771311 -792.86742507 1675.43166505 -796.875 1670.3125 C-798.08929687 1668.77335937 -798.08929687 1668.77335937 -799.328125 1667.203125 C-801.6604109 1664.24603449 -803.98408372 1661.2822884 -806.30517578 1658.31640625 C-807.39335126 1656.92733248 -808.48296934 1655.53938808 -809.57373047 1654.15234375 C-816.35054668 1645.53377738 -823.02577637 1636.87987493 -829.33203125 1627.91015625 C-831.15707787 1625.3146147 -833.01265401 1622.74396899 -834.88671875 1620.18359375 C-852.93801988 1595.50153987 -869.37234762 1569.66086283 -884.875 1543.3125 C-885.45362793 1542.3332959 -886.03225586 1541.3540918 -886.62841797 1540.34521484 C-895.74029857 1524.89063193 -904.21961949 1509.2022938 -912.37353516 1493.22558594 C-914.00237883 1490.06536436 -915.68431742 1486.93821573 -917.38427734 1483.81591797 C-924.17946618 1471.2934907 -930.0196693 1458.29322948 -935.875 1445.3125 C-936.40641602 1444.13526367 -936.93783203 1442.95802734 -937.48535156 1441.74511719 C-973.40850035 1361.64291418 -998.21908359 1276.80972174 -1025.078125 1049.38671875 C-1025.08510355 1047.52071612 -1025.09214451 1045.65471372 -1025.09924316 1043.78871155 C-1025.11851981 1037.85913803 -1025.12341865 1031.92960144 -1025.125 1026 C-1025.12558914 1024.99123306 -1025.12617828 1023.98246613 -1025.12678528 1022.94313049 C-1025.13882238 993.76272783 -1024.96054212 964.72726621 -1022.10284424 935.66046143 C-1021.87003509 933.26133601 -1021.65167169 930.86126266 -1021.43701172 928.46044922 C-1014.55196548 851.93001463 -998.51190375 776.45721845 -974.58209229 703.46954346 C-974.11210619 702.03581204 -973.64330799 700.60169067 -973.17572021 699.16717529 C-960.80536204 661.21849626 -945.53564304 624.56212025 -928.875 588.3125 C-928.15376953 586.73710449 -928.15376953 586.73710449 -927.41796875 585.12988281 C-922.43606069 574.28305048 -917.03347784 563.69421355 -911.39892578 553.17333984 C-909.9889849 550.52648191 -908.59259421 547.87284124 -907.20089722 545.21635437 C-891.16365455 514.61631941 -873.63136636 484.78328953 -854.17333984 456.21875 C-852.72121525 454.08670998 -851.27690673 451.9494587 -849.83203125 449.8125 C-829.85017602 420.34808838 -808.34260766 392.10758778 -785.29101562 364.98291016 C-783.87181397 363.30874159 -782.45849229 361.62978525 -781.046875 359.94921875 C-776.09477687 354.0592363 -771.07916444 348.25010007 -765.90234375 342.5546875 C-764.13532801 340.60041576 -762.40586471 338.62190263 -760.6875 336.625 C-750.51567727 324.98339555 -739.6792053 313.97480775 -728.68920898 303.11083984 C-724.65078779 299.10774329 -720.64308521 295.07419411 -716.63671875 291.0390625 C-715.1284077 289.52336753 -713.6196095 288.00815937 -712.1105957 286.49316406 C-711.0829943 285.4605389 -710.05629286 284.42701732 -709.03051758 283.39257812 C-703.70207308 278.02050693 -698.36343448 272.7173546 -692.60717773 267.79736328 C-690.02347498 265.58255283 -687.55263444 263.25698187 -685.0625 260.9375 C-680.38378545 256.60959614 -675.54588102 252.54627645 -670.578125 248.55078125 C-667.81684175 246.26434295 -665.18961778 243.87641782 -662.5625 241.4375 C-658.01552318 237.25763037 -653.30158286 233.41129205 -648.4230957 229.63378906 C-643.80447989 226.05703687 -639.26890803 222.3891873 -634.75 218.6875 C-628.25136565 213.3854347 -621.65508203 208.25180049 -614.875 203.3125 C-613.88959229 202.59392822 -613.88959229 202.59392822 -612.88427734 201.86083984 C-607.56441337 197.98822973 -602.22420106 194.14445651 -596.875 190.3125 C-596.17213867 189.8081543 -595.46927734 189.30380859 -594.74511719 188.78417969 C-568.97698904 170.32615881 -542.31311595 153.17691502 -514.875 137.3125 C-513.9989209 136.80428711 -513.1228418 136.29607422 -512.22021484 135.77246094 C-472.48005189 112.78931447 -431.40129826 92.5970612 -388.875 75.3125 C-388.10196533 74.99774719 -387.32893066 74.68299438 -386.5324707 74.35870361 C-332.64912934 52.45784709 -276.93750237 34.58537184 -219.94689941 22.74359131 C-217.80198194 22.29730744 -215.65826817 21.84553971 -213.51464844 21.39306641 C-177.22417166 13.75851134 -140.65916772 8.28753955 -103.77462769 4.44485474 C-102.20378544 4.28066192 -100.63321423 4.11384029 -99.0630188 3.943573 C-66.15291003 0.40378712 -33.06581882 -0.06792485 0 0 Z " fill="#5170FF" transform="translate(1024.875,-0.3125)"/>
<path d="M0 0 C8.56898734 1.21238908 17.15514195 2.2697907 25.74526978 3.31988525 C37.86108346 4.80426104 49.96257547 6.35895636 62.04870605 8.07022095 C74.64169663 9.85121161 87.26083021 11.34870028 99.89239502 12.82559204 C112.33817116 14.28333367 124.76097461 15.85420689 137.17370605 17.57022095 C150.32432183 19.38779295 163.48770597 21.0305311 176.67370605 22.57022095 C190.61336516 24.19791331 204.52483772 25.95980813 218.42687988 27.88171387 C230.99267738 29.61523789 243.57485093 31.15978649 256.17370605 32.63272095 C267.52468928 33.96002912 278.86036041 35.32224938 290.17370605 36.94522095 C304.9769109 39.06489212 319.82576351 40.79774686 334.67370605 42.57022095 C352.98136822 44.75677842 371.25935348 47.03143864 389.5135498 49.62734985 C410.33740962 52.54565036 431.22441129 54.98054694 452.10339355 57.46316528 C467.89165119 59.34341817 483.64143503 61.38501914 499.38464355 63.61123657 C520.25345456 66.52345188 541.18094595 68.97537868 562.10339355 71.46316528 C576.75350933 73.20787475 591.37550239 75.05909534 605.9822998 77.1366272 C612.25802055 78.02563276 618.54384457 78.82527605 624.83239746 79.61660767 C672.18025311 85.57638912 672.18025311 85.57638912 686.59558105 102.2850647 C695.36234353 114.03450387 697.99100755 126.72151445 696.67370605 141.07022095 C693.9588434 155.46207811 686.04325903 165.30078472 675.90132141 175.35435009 C674.79771691 176.46304511 673.69498758 177.57261184 672.59304947 178.6829631 C669.56798533 181.72604767 666.5306591 184.75662538 663.49113935 187.78526195 C660.18439572 191.08455411 656.88925629 194.39540273 653.59260178 197.70477039 C647.81490591 203.50152374 642.02979657 209.29079477 636.239748 215.07520866 C627.62963285 223.67696625 619.03094254 232.29007741 610.43439608 240.90539277 C594.18732266 257.18705344 577.92663252 273.4550692 561.66159672 289.71878322 C549.10206398 302.27740266 536.54593001 314.83941079 523.9921875 327.40381813 C522.18890382 329.20860008 520.38561801 331.01337992 518.58233011 332.81815765 C517.68719256 333.71403502 516.79205501 334.6099124 515.86979208 335.53293757 C514.52463533 336.87920494 514.52463533 336.87920494 513.1523037 338.25266963 C512.25403884 339.15167952 511.35577399 340.05068942 510.43028899 340.97694203 C485.16378312 366.26418655 459.89303883 391.54718852 434.61361694 416.82152081 C434.13721598 417.2978281 433.66081501 417.77413539 433.16997766 418.26487624 C427.85774816 423.57605976 422.54546808 428.88719269 417.23317456 434.19831219 C415.77923351 435.65193342 414.32529255 437.10555474 412.87135169 438.55917616 C411.90125829 439.52905517 410.93116382 440.49893312 409.9610683 441.46881 C379.28493974 472.13804253 348.62338585 502.82177431 317.97399902 533.51773071 C310.25124864 541.25220562 302.52844574 548.98662807 294.80534363 556.72075176 C294.32978363 557.19699083 293.85422363 557.6732299 293.36425272 558.16390046 C267.67927706 583.88532759 241.97861433 609.5910691 216.27317905 635.29204875 C212.65733164 638.90735155 209.04152706 642.52269717 205.42575073 646.13807106 C204.5354416 647.02826616 203.64513246 647.91846125 202.72784426 648.83563195 C189.2847712 662.27748103 175.85098213 675.72856189 162.42190552 689.18439293 C147.15014055 704.48657513 131.86629528 719.77656975 116.56613082 735.05035862 C108.00403062 743.59843058 99.45173963 752.15604788 90.9132536 760.72770903 C85.20766653 766.45352333 79.48943736 772.16650141 73.76079643 777.86924993 C70.49791287 781.11809868 67.24075543 784.37216067 63.99886 787.6419644 C61.04487855 790.62114688 58.07502931 793.58352119 55.09213049 796.53374165 C54.02702418 797.59271641 52.9676387 798.65748766 51.91506325 799.72891844 C40.70013772 811.13093867 28.14570212 818.09823212 11.98620605 818.44522095 C-2.33717637 818.40536458 -14.34976844 812.98118167 -24.70129395 803.13272095 C-35.5914086 791.4663252 -38.76644671 776.65756315 -40.4239502 761.18740845 C-40.58509793 759.79841083 -40.74777126 758.40958949 -40.91184998 757.02093506 C-41.33677353 753.39394827 -41.74329058 749.76515511 -42.1449585 746.13552856 C-42.7832222 740.4021791 -43.45244361 734.67229021 -44.11562729 728.94178009 C-44.36148211 726.81213202 -44.60517417 724.68224338 -44.8487854 722.55233765 C-46.0555344 712.06252698 -47.45198813 701.60805113 -48.92530823 691.15197754 C-50.26173799 681.64671973 -51.44031781 672.13056287 -52.5357666 662.59487915 C-53.99668387 649.89963085 -55.52310733 637.22184735 -57.32629395 624.57022095 C-59.14027592 611.84285149 -60.65430905 599.08817399 -62.14804077 586.31997681 C-63.58350163 574.06888885 -65.14036753 561.8491555 -66.8770752 549.6366272 C-68.27059094 539.73592258 -69.43615047 529.81578811 -70.57757568 519.88369751 C-71.68598375 510.26007576 -72.89981469 500.66172304 -74.26379395 491.07022095 C-75.96567912 479.08948963 -77.42027714 467.08864403 -78.82629395 455.07022095 C-80.21299741 443.21861093 -81.64253816 431.38388959 -83.32629395 419.57022095 C-85.1406587 406.84016583 -86.6547065 394.08277386 -88.14904785 381.31192017 C-89.43024678 370.37992995 -90.77316123 359.46740412 -92.32629395 348.57022095 C-94.1406587 335.84016583 -95.6547065 323.08277386 -97.14904785 310.31192017 C-98.43024678 299.37992995 -99.77316123 288.46740412 -101.32629395 277.57022095 C-103.1406587 264.84016583 -104.6547065 252.08277386 -106.14904785 239.31192017 C-107.43024678 228.37992995 -108.77316123 217.46740412 -110.32629395 206.57022095 C-112.14027592 193.84285149 -113.65430905 181.08817399 -115.14804077 168.31997681 C-116.4488065 157.21845828 -117.81913392 146.1374163 -119.38879395 135.07022095 C-130.48409418 55.92299267 -130.48409418 55.92299267 -111.32629395 28.07022095 C-99.45945212 12.95238348 -82.21415452 -0.54276579 -62.75891113 -3.64413452 C-41.74716694 -6.11139071 -20.77603543 -2.94801862 0 0 Z " fill="#FEFEFF" transform="translate(632.3262939453125,510.9297790527344)"/>
<path d="M0 0 C8.88492555 8.22534593 14.44802798 19.93521782 15.90625 31.84375 C16.07507225 33.1851965 16.24437086 34.52658312 16.4140625 35.86791992 C16.50381348 36.58861664 16.59356445 37.30931335 16.68603516 38.05184937 C17.21067961 42.1906438 17.78111585 46.32326289 18.34375 50.45703125 C20.81669663 68.76849437 23.23886754 87.07890157 25.34127808 105.43692017 C26.41035334 114.75799278 27.5946969 124.05457932 28.9140625 133.34375 C30.61572269 145.32451707 32.07054488 157.32531993 33.4765625 169.34375 C34.8632664 181.19536377 36.29292393 193.03006262 37.9765625 204.84375 C39.76390517 217.39221545 41.25964572 229.96622073 42.73092651 242.55493164 C44.29785596 255.93577755 46.01303642 269.28823764 47.85516357 282.63378906 C49.47689496 294.40071171 50.93064605 306.17863478 52.28396606 317.97924805 C53.39157578 327.61932361 54.6154985 337.23561693 55.9765625 346.84375 C57.43820996 357.16192996 58.72692404 367.49123913 59.9140625 377.84375 C61.29279269 389.86506877 62.82500399 401.85690969 64.4765625 413.84375 C66.20079361 426.36094663 67.77922363 438.88471457 69.21630859 451.43798828 C70.49682489 462.59380469 71.9443884 473.71984154 73.4765625 484.84375 C75.20064693 497.36096811 76.77922325 509.88471117 78.21630859 522.43798828 C79.49682489 533.59380469 80.9443884 544.71984154 82.4765625 555.84375 C84.20064693 568.36096811 85.77922325 580.88471117 87.21630859 593.43798828 C88.58645742 605.37468035 90.15839014 617.27659176 91.79830933 629.17895508 C93.43643315 641.08884039 94.9124798 653.00916829 96.28067017 664.95288086 C97.58153066 676.28840758 99.05577118 687.58945318 100.67016602 698.88476562 C104.65275255 726.87560539 105.4790003 753.30724681 88.84375 777.4375 C76.31596449 793.4227747 58.85286478 806.07065426 38.38037109 809.08007812 C19.6586509 811.1336489 1.00665502 808.69030951 -17.50439453 805.99414062 C-25.16254085 804.88349932 -32.83428718 803.87052668 -40.50445557 802.84692383 C-42.3957992 802.59431524 -44.28703447 802.34089407 -46.17816162 802.08666992 C-62.85822153 799.84481989 -79.55924743 797.81089563 -96.27261353 795.83453369 C-109.12370682 794.31372453 -121.94936856 792.71529171 -134.75976562 790.88012695 C-146.65832674 789.20249842 -158.59097092 787.81807301 -170.5234375 786.40625 C-185.20765024 784.66873037 -199.87696186 782.87590114 -214.5234375 780.84375 C-230.08439632 778.68529301 -245.67264089 776.80387244 -261.27368164 774.95950317 C-275.6162589 773.26163093 -289.93558255 771.45487112 -304.24169922 769.47412109 C-317.37397097 767.65927992 -330.52645569 766.06926159 -343.69384766 764.53198242 C-356.15591728 763.07453069 -368.59416095 761.49565001 -381.0234375 759.78125 C-392.80241254 758.15693658 -404.58631662 756.64449156 -416.3984375 755.28125 C-432.29264962 753.44404073 -448.16074445 751.43654087 -464.0234375 749.34375 C-465.45958405 749.15428802 -465.45958405 749.15428802 -466.92474365 748.96099854 C-474.79110941 747.92293313 -482.65728092 746.88339904 -490.5234375 745.84375 C-498.39822453 744.8030542 -506.27304725 743.76263006 -514.14801025 742.7232666 C-515.93606676 742.48726789 -517.72411376 742.25119715 -519.512146 742.01501465 C-536.95568725 739.71165937 -554.413846 737.57724101 -571.88793945 735.52145386 C-585.31955187 733.93836488 -598.716948 732.19745244 -612.109375 730.30859375 C-619.51141709 729.26672301 -626.92231201 728.29923856 -634.3359375 727.34375 C-635.60695313 727.17794434 -636.87796875 727.01213867 -638.1875 726.84130859 C-644.28375933 726.05238995 -650.37924683 725.29292866 -656.48927307 724.62002563 C-659.36983852 724.30179987 -662.24891227 723.97100393 -665.12802124 723.63989258 C-667.13967693 723.41424336 -669.15345216 723.2077431 -671.16723633 723.00195312 C-687.15183017 721.15729853 -698.78493766 714.92322691 -709.234375 702.74609375 C-712.10574663 698.89043097 -714.14040209 694.75209647 -716.0234375 690.34375 C-716.55324219 689.17585938 -716.55324219 689.17585938 -717.09375 687.984375 C-721.21197874 676.28722111 -720.31637705 662.39499067 -715.0234375 651.34375 C-710.75662472 642.95709537 -704.86626918 636.61719518 -698.25105286 630.05962086 C-697.14744835 628.95092584 -696.04471902 627.84135911 -694.94278091 626.73100784 C-691.91771677 623.68792328 -688.88039055 620.65734557 -685.8408708 617.628709 C-682.53412717 614.32941683 -679.23898773 611.01856822 -675.94233322 607.70920056 C-670.16463735 601.91244721 -664.37952801 596.12317617 -658.58947945 590.33876228 C-649.97936429 581.7370047 -641.38067398 573.12389353 -632.78412753 564.50857818 C-616.53705411 548.22691751 -600.27636397 531.95890174 -584.01132816 515.69518773 C-571.45179543 503.13656829 -558.89566146 490.57456016 -546.34191895 478.01015282 C-544.53863526 476.20537087 -542.73534946 474.40059103 -540.93206155 472.5958133 C-540.036924 471.69993593 -539.14178646 470.80405855 -538.21952353 469.88103338 C-536.87436678 468.53476601 -536.87436678 468.53476601 -535.50203514 467.16130131 C-534.15463786 465.81278648 -534.15463786 465.81278648 -532.78002044 464.43702891 C-507.51351456 439.1497844 -482.24277027 413.86678243 -456.96334839 388.59245014 C-456.24874694 387.8779892 -456.24874694 387.8779892 -455.5197091 387.14909471 C-450.2074796 381.83791119 -444.89519952 376.52677826 -439.58290601 371.21565876 C-438.12896496 369.76203753 -436.675024 368.30841621 -435.22108314 366.85479479 C-434.25098973 365.88491578 -433.28089527 364.91503783 -432.31079974 363.94516094 C-401.63467118 333.27592842 -370.9731173 302.59219664 -340.32373047 271.89624023 C-332.60098009 264.16176533 -324.87817718 256.42734288 -317.15507507 248.69321918 C-316.67951507 248.21698011 -316.20395507 247.74074104 -315.71398416 247.25007049 C-290.02900851 221.52864336 -264.32834578 195.82290185 -238.6229105 170.12192219 C-235.00706309 166.5066194 -231.39125851 162.89127377 -227.77548218 159.27589989 C-226.88517304 158.38570479 -225.99486391 157.4955097 -225.07757571 156.57833899 C-211.63450265 143.13648992 -198.20071357 129.68540906 -184.77163696 116.22957802 C-169.499872 100.92739582 -154.21602673 85.6374012 -138.91586226 70.36361233 C-130.35376206 61.81554036 -121.80147107 53.25792307 -113.26298505 44.68626192 C-107.55739798 38.96044761 -101.83916881 33.24746954 -96.11052788 27.54472102 C-92.84764431 24.29587227 -89.59048687 21.04181028 -86.34859145 17.77200655 C-83.39460999 14.79282406 -80.42476076 11.83044976 -77.44186193 8.8802293 C-76.37675563 7.82125453 -75.31737014 6.75648329 -74.2647947 5.6850525 C-53.3717959 -15.5564969 -23.93313166 -19.59005372 0 0 Z " fill="#FEFEFF" transform="translate(1438.0234375,731.65625)"/>
</svg>
